<svg width="12" height="13" viewBox="0 0 12 13" fill="none" xmlns="http://www.w3.org/2000/svg">
<path d="M7.215 9.91006C7.12 9.91006 7.025 9.87506 6.95 9.80006C6.805 9.65506 6.805 9.41506 6.95 9.27006L9.72 6.50006L6.95 3.73006C6.805 3.58506 6.805 3.34506 6.95 3.20006C7.095 3.05506 7.335 3.05506 7.48 3.20006L10.515 6.23506C10.66 6.38006 10.66 6.62006 10.515 6.76506L7.48 9.80006C7.405 9.87506 7.31 9.91006 7.215 9.91006Z" fill="#292D32"/>
<path d="M10.165 6.875H1.75C1.545 6.875 1.375 6.705 1.375 6.5C1.375 6.295 1.545 6.125 1.75 6.125H10.165C10.37 6.125 10.54 6.295 10.54 6.5C10.54 6.705 10.37 6.875 10.165 6.875Z" fill="#292D32"/>
</svg>
