<svg width="24" height="24" viewBox="0 0 24 24" fill="none" xmlns="http://www.w3.org/2000/svg">
<g clip-path="url(#clip0_629_495)">
<path d="M12 24C14.3734 24 16.6935 23.2962 18.6669 21.9776C20.6402 20.6591 22.1783 18.7849 23.0866 16.5922C23.9948 14.3995 24.2325 11.9867 23.7694 9.65892C23.3064 7.33115 22.1635 5.19295 20.4853 3.51472C18.8071 1.83649 16.6689 0.693605 14.3411 0.230582C12.0133 -0.232441 9.60053 0.00519936 7.40781 0.913451C5.2151 1.8217 3.34096 3.35977 2.02238 5.33316C0.703801 7.30655 1.34423e-05 9.62663 1.34423e-05 12C-0.00387158 13.577 0.303866 15.1391 0.905546 16.5968C1.50723 18.0545 2.39099 19.3789 3.50607 20.4939C4.62115 21.609 5.94556 22.4928 7.40322 23.0945C8.86088 23.6962 10.4231 24.0039 12 24Z" fill="#2775CA"/>
<path d="M15.3 13.9003C15.3 12.1549 14.2505 11.5494 12.1505 11.2996C10.6495 11.0999 10.3505 10.6996 10.3505 10.0003C10.3505 9.30104 10.8502 8.8494 11.8495 8.8494C12.7505 8.8494 13.2502 9.1494 13.5 9.89995C13.5268 9.97226 13.5752 10.0346 13.6386 10.0785C13.702 10.1224 13.7774 10.1457 13.8545 10.1454H14.6542C14.7005 10.1466 14.7466 10.1384 14.7896 10.1212C14.8326 10.104 14.8717 10.0783 14.9045 10.0455C14.9372 10.0127 14.963 9.97366 14.9801 9.93063C14.9973 9.88761 15.0056 9.84153 15.0044 9.79522V9.74613C14.9078 9.20421 14.6349 8.70936 14.2281 8.33849C13.8213 7.96762 13.3034 7.74148 12.7549 7.69522V6.49522C12.7549 6.29558 12.6044 6.14613 12.3545 6.09595H11.604C11.4044 6.09595 11.2549 6.2454 11.2047 6.49522V7.6494C9.70036 7.85449 8.75018 8.8494 8.75018 10.0996C8.75018 11.7501 9.75054 12.4003 11.8505 12.6501C13.2502 12.8999 13.7051 13.1956 13.7051 13.9996C13.7051 14.8036 13.0058 15.3501 12.0556 15.3501C10.7553 15.3501 10.3102 14.8047 10.1553 14.0498C10.141 13.9654 10.0976 13.8888 10.0326 13.8332C9.96759 13.7776 9.88516 13.7465 9.79964 13.7454H8.94545C8.89918 13.7444 8.85318 13.7527 8.81022 13.7699C8.76726 13.7872 8.72824 13.8129 8.69551 13.8456C8.66279 13.8784 8.63703 13.9174 8.6198 13.9604C8.60257 14.0033 8.59423 14.0493 8.59527 14.0956V14.1458C8.796 15.3959 9.59563 16.2959 11.2462 16.5458V17.7458C11.2462 17.9454 11.3956 18.0959 11.6455 18.1461H12.396C12.5956 18.1461 12.7462 17.9956 12.7953 17.7458V16.5458C14.2953 16.2959 15.2956 15.2454 15.2956 13.8959L15.3 13.9003Z" fill="white"/>
<path d="M9.44946 19.1498C8.01079 18.6222 6.76882 17.6655 5.89144 16.4091C5.01406 15.1528 4.54356 13.6573 4.54356 12.1249C4.54356 10.5925 5.01406 9.0971 5.89144 7.84075C6.76882 6.5844 8.01079 5.62772 9.44946 5.10003C9.54545 5.05851 9.62608 4.98804 9.68006 4.89846C9.73404 4.80887 9.75869 4.70466 9.75055 4.60039V3.90003C9.75728 3.80816 9.73049 3.71697 9.67512 3.64335C9.61976 3.56974 9.53958 3.51869 9.44946 3.49967C9.37908 3.49233 9.30837 3.5101 9.24982 3.54985C7.42954 4.12841 5.84059 5.27121 4.71297 6.81284C3.58534 8.35446 2.97754 10.2149 2.97754 12.1249C2.97754 14.035 3.58534 15.8954 4.71297 17.437C5.84059 18.9787 7.42954 20.1215 9.24982 20.7C9.29139 20.7242 9.3381 20.7381 9.3861 20.7408C9.43411 20.7434 9.48205 20.7346 9.52601 20.7151C9.56997 20.6956 9.60868 20.666 9.63899 20.6287C9.6693 20.5914 9.69033 20.5474 9.70037 20.5004C9.75055 20.4502 9.75055 20.4 9.75055 20.2997V19.6004C9.75055 19.4498 9.6 19.2502 9.44946 19.1498ZM14.7502 3.54985C14.7085 3.5257 14.6618 3.51177 14.6137 3.50921C14.5656 3.50665 14.5176 3.51553 14.4736 3.53512C14.4297 3.55472 14.391 3.58446 14.3607 3.62191C14.3305 3.65937 14.3095 3.70346 14.2996 3.75058C14.2505 3.79967 14.2505 3.84985 14.2505 3.95021V4.64948C14.259 4.75032 14.2904 4.84789 14.3424 4.93469C14.3944 5.02149 14.4656 5.09522 14.5505 5.15021C15.9892 5.6779 17.2312 6.63458 18.1086 7.89093C18.986 9.14728 19.4564 10.6427 19.4564 12.1751C19.4564 13.7075 18.986 15.203 18.1086 16.4593C17.2312 17.7157 15.9892 18.6723 14.5505 19.2C14.4547 19.2416 14.3742 19.3121 14.3204 19.4017C14.2666 19.4913 14.2422 19.5955 14.2505 19.6997V20.4C14.2438 20.4917 14.2704 20.5828 14.3256 20.6564C14.3807 20.73 14.4606 20.7811 14.5505 20.8004C14.6209 20.8077 14.6916 20.79 14.7502 20.7502C16.5698 20.1636 18.1564 19.0151 19.2819 17.4697C20.4074 15.9243 21.0138 14.0618 21.0138 12.15C21.0138 10.2382 20.4074 8.37572 19.2819 6.83035C18.1564 5.28498 16.5698 4.13642 14.7502 3.54985Z" fill="white"/>
</g>
<defs>
<clipPath id="clip0_629_495">
<rect width="24" height="24" fill="white"/>
</clipPath>
</defs>
</svg>
