<svg width="12" height="12" viewBox="0 0 12 12" fill="none" xmlns="http://www.w3.org/2000/svg">
<path d="M5.38 8.1849C5.17 8.1849 4.975 8.1349 4.8 8.0349C4.4 7.8049 4.17 7.3349 4.17 6.7399V5.2599C4.17 4.6699 4.4 4.1949 4.8 3.9649C5.2 3.7349 5.72 3.7699 6.235 4.0699L7.52 4.8099C8.03 5.1049 8.325 5.5399 8.325 5.9999C8.325 6.4599 8.03 6.8949 7.52 7.1899L6.235 7.9299C5.945 8.0999 5.65 8.1849 5.38 8.1849ZM5.385 4.5649C5.305 4.5649 5.235 4.5799 5.18 4.6149C5.02 4.7099 4.925 4.9449 4.925 5.2599V6.7399C4.925 7.0549 5.015 7.2899 5.18 7.3849C5.34 7.4799 5.59 7.4399 5.865 7.2799L7.15 6.5399C7.425 6.3799 7.58 6.1849 7.58 5.9999C7.58 5.8149 7.425 5.6149 7.15 5.4599L5.865 4.7199C5.685 4.6149 5.52 4.5649 5.385 4.5649Z" fill="black"/>
<path d="M6 11.375C3.035 11.375 0.625 8.965 0.625 6C0.625 3.035 3.035 0.625 6 0.625C8.965 0.625 11.375 3.035 11.375 6C11.375 8.965 8.965 11.375 6 11.375ZM6 1.375C3.45 1.375 1.375 3.45 1.375 6C1.375 8.55 3.45 10.625 6 10.625C8.55 10.625 10.625 8.55 10.625 6C10.625 3.45 8.55 1.375 6 1.375Z" fill="black"/>
</svg>
